<svg
   width="27.089169"
   class="c-slacklogo--color"
   viewBox="0 0 65.014004 26.938334"
   shape-rendering="geometricPrecision"
   version="1.1"
   id="svg16"
   sodipodi:docname="slack.svg"
   height="26.938334"
   inkscape:version="1.1.1 (3bf5ae0d25, 2021-09-20)"
   xmlns:inkscape="http://www.inkscape.org/namespaces/inkscape"
   xmlns:sodipodi="http://sodipodi.sourceforge.net/DTD/sodipodi-0.dtd"
   xmlns="http://www.w3.org/2000/svg"
   xmlns:svg="http://www.w3.org/2000/svg"
   xmlns:rdf="http://www.w3.org/1999/02/22-rdf-syntax-ns#"
   xmlns:cc="http://creativecommons.org/ns#"
   xmlns:dc="http://purl.org/dc/elements/1.1/">
  <defs
     id="defs20" />
  <sodipodi:namedview
     id="namedview18"
     pagecolor="#ffffff"
     bordercolor="#666666"
     borderopacity="1.0"
     inkscape:pageshadow="2"
     inkscape:pageopacity="0.0"
     inkscape:pagecheckerboard="0"
     showgrid="false"
     fit-margin-top="1"
     fit-margin-left="1.2"
     fit-margin-right="1"
     fit-margin-bottom="1"
     inkscape:zoom="12.48"
     inkscape:cx="25.761218"
     inkscape:cy="12.740385"
     inkscape:window-width="1920"
     inkscape:window-height="1037"
     inkscape:window-x="0"
     inkscape:window-y="0"
     inkscape:window-maximized="1"
     inkscape:current-layer="svg16" />
  <path
     d="m 24.782003,-16.456833 c -3.299,0 -5.973,2.68 -5.973,5.985 a 5.979,5.979 0 0 0 5.973,5.9849997 h 5.974 v -5.9849997 a 5.98,5.98 0 0 0 -5.974,-5.985 m 0,15.95999974 h -15.929 c -3.299,0 -5.973,2.67999996 -5.973,5.98599996 0,3.3050003 2.674,5.9850003 5.973,5.9850003 h 15.93 c 3.298,0 5.973,-2.68 5.973,-5.9850003 0,-3.306 -2.675,-5.98599996 -5.974,-5.98599996"
     fill="#36c5f0"
     id="path6" />
  <path
     d="m 62.614003,5.4891667 c 0,-3.306 -2.675,-5.98599996 -5.974,-5.98599996 -3.299,0 -5.973,2.67999996 -5.973,5.98599996 v 5.9850003 h 5.973 a 5.98,5.98 0 0 0 5.974,-5.9850003 m -15.929,0 V -10.471833 a 5.98,5.98 0 0 0 -5.974,-5.985 c -3.299,0 -5.973,2.68 -5.973,5.985 V 5.4881667 c 0,3.3070003 2.674,5.9870003 5.973,5.9870003 a 5.98,5.98 0 0 0 5.974,-5.9850003"
     fill="#2eb67d"
     id="path8" />
  <path
     d="m 40.711003,43.395167 a 5.98,5.98 0 0 0 5.974,-5.985 5.98,5.98 0 0 0 -5.974,-5.985 h -5.973 v 5.985 c 0,3.305 2.674,5.985 5.973,5.985 m 0,-15.96 h 15.93 c 3.298,0 5.973,-2.68 5.973,-5.986 a 5.98,5.98 0 0 0 -5.974,-5.985 h -15.929 c -3.299,0 -5.973,2.68 -5.973,5.985 a 5.979,5.979 0 0 0 5.973,5.985"
     fill="#ecb22e"
     id="path10" />
  <g
     id="g14"
     transform="translate(2.880003,-16.604833)">
    <path
       d="m 0,38.054 a 5.979,5.979 0 0 0 5.973,5.985 5.98,5.98 0 0 0 5.974,-5.985 V 32.069 H 5.973 C 2.674,32.069 0,34.749 0,38.054 m 15.929,0 v 15.96 c 0,3.306 2.674,5.986 5.973,5.986 a 5.98,5.98 0 0 0 5.974,-5.985 V 38.054 a 5.979,5.979 0 0 0 -5.974,-5.985 c -3.299,0 -5.973,2.68 -5.973,5.985"
       fill="#e01e5a"
       id="path12" />
  </g>
</svg>
